<svg xmlns="http://www.w3.org/2000/svg" width="108px" height="158px">
    <defs>
        <linearGradient id="build_step1" x1="50%" x2="0%" y1="86.603%" y2="0%">
            <stop offset="47%" stop-color="rgb(56,72,149)" stop-opacity="0.33"/>
            <stop offset="100%" stop-color="rgb(149,229,255)" stop-opacity="0.33"/>
        </linearGradient>

    </defs>
    <path fill="rgb(56, 72, 149)" d="M71.342,105.312 C67.863,107.737 64.454,110.595 62.533,113.503 C60.013,117.317 58.492,121.893 57.594,125.566 L57.594,157.812 L51.594,157.812 L51.594,125.517 C50.694,121.852 49.176,117.301 46.667,113.503 C44.930,110.874 41.979,108.286 38.858,106.022 C16.407,99.476 0.000,78.753 0.000,54.187 C0.000,24.364 24.177,0.187 54.000,0.187 C83.823,0.187 108.000,24.364 108.000,54.187 C108.000,77.941 92.654,98.089 71.342,105.312 Z"/>
    <path fill="url(#build_step1)" d="M71.342,105.312 C67.863,107.737 64.454,110.595 62.533,113.503 C60.013,117.317 58.492,121.893 57.594,125.566 L57.594,157.812 L51.594,157.812 L51.594,125.517 C50.694,121.852 49.176,117.301 46.667,113.503 C44.930,110.874 41.979,108.286 38.858,106.022 C16.407,99.476 0.000,78.753 0.000,54.187 C0.000,24.364 24.177,0.187 54.000,0.187 C83.823,0.187 108.000,24.364 108.000,54.187 C108.000,77.941 92.654,98.089 71.342,105.312 Z"/>
</svg>