<svg xmlns="http://www.w3.org/2000/svg" width="109px" height="148px">
    <defs>
        <linearGradient id="build_step4" x1="50%" x2="0%" y1="86.603%" y2="0%">
            <stop offset="0%" stop-color="rgb(255,254,148)" stop-opacity="0.41"/>
            <stop offset="53%" stop-color="rgb(244,122,20)" stop-opacity="0.41"/>
        </linearGradient>

    </defs>
    <path fill="rgb(244, 122, 20)" d="M54.812,147.813 C24.989,147.813 0.812,123.636 0.812,93.813 C0.812,69.254 17.210,48.535 39.651,41.983 C42.774,39.718 45.729,37.128 47.467,34.497 C49.987,30.683 51.508,26.107 52.406,22.435 L52.406,0.188 L58.406,0.188 L58.406,22.484 C59.306,26.148 60.824,30.700 63.333,34.497 C65.252,37.402 68.654,40.256 72.129,42.679 C93.455,49.895 108.813,70.050 108.813,93.813 C108.813,123.636 84.636,147.813 54.812,147.813 Z"/>
    <path fill="url(#build_step4)" d="M54.812,147.813 C24.989,147.813 0.812,123.636 0.812,93.813 C0.812,69.254 17.210,48.535 39.651,41.983 C42.774,39.718 45.729,37.128 47.467,34.497 C49.987,30.683 51.508,26.107 52.406,22.435 L52.406,0.188 L58.406,0.188 L58.406,22.484 C59.306,26.148 60.824,30.700 63.333,34.497 C65.252,37.402 68.654,40.256 72.129,42.679 C93.455,49.895 108.813,70.050 108.813,93.813 C108.813,123.636 84.636,147.813 54.812,147.813 Z"/>
</svg>